<svg width="13" height="13" viewBox="0 0 13 13" fill="none" xmlns="http://www.w3.org/2000/svg">
<g id="Group">
<path id="Vector" d="M4.07496 0.944444C4.07496 0.82657 4.02755 0.713524 3.94316 0.630175C3.85877 0.546825 3.74431 0.5 3.62496 0.5C3.50562 0.5 3.39116 0.546825 3.30677 0.630175C3.22237 0.713524 3.17496 0.82657 3.17496 0.944444V1.88074C2.31096 1.94889 1.74456 2.116 1.32816 2.52785C0.911163 2.93911 0.741963 3.49911 0.672363 4.35185H12.5776C12.508 3.49852 12.3388 2.93911 11.9218 2.52785C11.5054 2.116 10.9384 1.94889 10.075 1.88015V0.944444C10.075 0.82657 10.0276 0.713524 9.94316 0.630175C9.85877 0.546825 9.74431 0.5 9.62496 0.5C9.50562 0.5 9.39116 0.546825 9.30676 0.630175C9.22237 0.713524 9.17496 0.82657 9.17496 0.944444V1.84104C8.77596 1.83333 8.32836 1.83333 7.82496 1.83333H5.42496C4.92156 1.83333 4.47396 1.83333 4.07496 1.84104V0.944444Z" fill="white"/>
<path id="Vector_2" fill-rule="evenodd" clip-rule="evenodd" d="M12.625 6.57406C12.625 6.07687 12.625 5.6348 12.6172 5.24072H0.6328C0.625 5.6348 0.625 6.07687 0.625 6.57406V7.75924C0.625 9.99391 0.625 11.1115 1.3282 11.8055C2.0308 12.5 3.1624 12.5 5.425 12.5H7.825C10.0876 12.5 11.2192 12.5 11.9218 11.8055C12.625 11.1115 12.625 9.99391 12.625 7.75924V6.57406ZM7.825 6.7222C7.54652 6.7222 7.27945 6.83146 7.08254 7.02595C6.88562 7.22043 6.775 7.4842 6.775 7.75924V8.94443C6.775 9.21947 6.88562 9.48324 7.08254 9.67772C7.27945 9.8722 7.54652 9.98146 7.825 9.98146C8.10348 9.98146 8.37055 9.8722 8.56746 9.67772C8.76438 9.48324 8.875 9.21947 8.875 8.94443V7.75924C8.875 7.4842 8.76438 7.22043 8.56746 7.02595C8.37055 6.83146 8.10348 6.7222 7.825 6.7222ZM7.825 7.61109C7.78522 7.61109 7.74706 7.6267 7.71893 7.65448C7.6908 7.68227 7.675 7.71995 7.675 7.75924V8.94443C7.675 8.98372 7.6908 9.0214 7.71893 9.04918C7.74706 9.07697 7.78522 9.09257 7.825 9.09257C7.86478 9.09257 7.90294 9.07697 7.93107 9.04918C7.9592 9.0214 7.975 8.98372 7.975 8.94443V7.75924C7.975 7.71995 7.9592 7.68227 7.93107 7.65448C7.90294 7.6267 7.86478 7.61109 7.825 7.61109ZM5.8972 6.75598C5.97944 6.78962 6.04972 6.8466 6.09917 6.9197C6.14862 6.99279 6.17501 7.07874 6.175 7.16665V9.53702C6.175 9.65489 6.12759 9.76794 6.0432 9.85129C5.95881 9.93464 5.84435 9.98146 5.725 9.98146C5.60565 9.98146 5.49119 9.93464 5.4068 9.85129C5.32241 9.76794 5.275 9.65489 5.275 9.53702V8.23924L5.143 8.36961C5.05769 8.44812 4.94487 8.49086 4.82829 8.48883C4.71171 8.4868 4.60048 8.44015 4.51803 8.35872C4.43558 8.27729 4.38835 8.16743 4.38629 8.05229C4.38424 7.93715 4.42751 7.82572 4.507 7.74146L5.407 6.85257C5.46989 6.79042 5.55002 6.74807 5.63727 6.73087C5.72452 6.71368 5.81498 6.72242 5.8972 6.75598Z" fill="white"/>
</g>
</svg>
