<svg width="21" height="21" viewBox="0 0 21 21" fill="none" xmlns="http://www.w3.org/2000/svg">
<path id="Vector" d="M18.7589 0.5H1.61607C1.23719 0.5 0.873828 0.65051 0.605919 0.918419C0.33801 1.18633 0.1875 1.54969 0.1875 1.92857V19.0714C0.1875 19.4503 0.33801 19.8137 0.605919 20.0816C0.873828 20.3495 1.23719 20.5 1.61607 20.5H18.7589C19.1378 20.5 19.5012 20.3495 19.7691 20.0816C20.037 19.8137 20.1875 19.4503 20.1875 19.0714V1.92857C20.1875 1.54969 20.037 1.18633 19.7691 0.918419C19.5012 0.65051 19.1378 0.5 18.7589 0.5ZM10.1875 17.6429H8.75893V11.9286H10.1875V17.6429ZM13.7589 14.7857L12.7489 13.7757L16.0246 10.5H6.61607C5.90971 10.5 5.21921 10.2905 4.63189 9.89811C4.04457 9.50567 3.58681 8.94789 3.3165 8.2953C3.04619 7.6427 2.97546 6.92461 3.11327 6.23182C3.25107 5.53903 3.59122 4.90266 4.09069 4.40319C4.59016 3.90372 5.22653 3.56357 5.91932 3.42577C6.61211 3.28796 7.3302 3.35869 7.9828 3.629C8.63539 3.89931 9.19317 4.35707 9.58561 4.94439C9.97804 5.53171 10.1875 6.22221 10.1875 6.92857V7.64286H8.75893V6.92857C8.75893 6.50475 8.63325 6.09045 8.39779 5.73806C8.16233 5.38567 7.82766 5.11102 7.43611 4.94883C7.04455 4.78664 6.61369 4.74421 6.19802 4.82689C5.78235 4.90957 5.40053 5.11366 5.10084 5.41334C4.80116 5.71303 4.59707 6.09485 4.51439 6.51052C4.43171 6.92619 4.47414 7.35705 4.63633 7.74861C4.79852 8.14016 5.07317 8.47483 5.42556 8.71029C5.77795 8.94575 6.19225 9.07143 6.61607 9.07143H16.0246L12.7489 5.79571L13.7589 4.78571L18.7589 9.78571L13.7589 14.7857Z" fill="#084F5F"/>
</svg>
