<svg width="15" height="15" viewBox="0 0 15 15" fill="none" xmlns="http://www.w3.org/2000/svg">
<g id="Group">
<path id="Vector" d="M1.25 3.5C1.25 4.60467 3.9365 5.5 7.25 5.5C10.5635 5.5 13.25 4.60467 13.25 3.5C13.25 2.39533 10.5635 1.5 7.25 1.5C3.9365 1.5 1.25 2.39533 1.25 3.5Z" stroke="white" stroke-width="2" stroke-linecap="round" stroke-linejoin="round"/>
<path id="Vector_2" d="M1.25 3.5V11.5C1.25 12.6047 3.9365 13.5 7.25 13.5C10.5635 13.5 13.25 12.6047 13.25 11.5V3.5" stroke="white" stroke-width="2" stroke-linecap="round" stroke-linejoin="round"/>
<path id="Vector_3" d="M1.25 9.49994C1.54212 9.50538 1.83134 9.44753 2.09268 9.33138C2.35402 9.21523 2.57962 9.04427 2.75 8.83328C2.92038 8.62228 3.14598 8.45133 3.40732 8.33518C3.66866 8.21903 3.95788 8.16117 4.25 8.16661C4.54212 8.16117 4.83134 8.21903 5.09268 8.33518C5.35402 8.45133 5.57962 8.62228 5.75 8.83328C5.92038 9.04427 6.14598 9.21523 6.40732 9.33138C6.66866 9.44753 6.95788 9.50538 7.25 9.49994C7.54212 9.50538 7.83134 9.44753 8.09268 9.33138C8.35402 9.21523 8.57962 9.04427 8.75 8.83328C8.92038 8.62228 9.14598 8.45133 9.40732 8.33518C9.66866 8.21903 9.95788 8.16117 10.25 8.16661C10.5421 8.16117 10.8313 8.21903 11.0927 8.33518C11.354 8.45133 11.5796 8.62228 11.75 8.83328C11.9204 9.04427 12.146 9.21523 12.4073 9.33138C12.6687 9.44753 12.9579 9.50538 13.25 9.49994" stroke="white" stroke-width="2" stroke-linecap="round" stroke-linejoin="round"/>
</g>
</svg>
