<svg width="13" height="13" viewBox="0 0 13 13" fill="none" xmlns="http://www.w3.org/2000/svg">
<g id="Group">
<path id="Vector" d="M11.9966 3.60327C12.0626 4.35987 12.0626 5.30367 12.0626 6.50007C12.0626 8.98047 12.0626 10.3731 11.4704 11.2707L7.89857 7.70007L11.9954 3.60327H11.9966ZM10.8338 11.9073L7.26257 8.33607L3.16577 12.4341C3.92237 12.5001 4.86617 12.5001 6.06257 12.5001C8.54297 12.5001 9.93617 12.5001 10.8338 11.9073Z" fill="white"/>
<path id="Vector_2" fill-rule="evenodd" clip-rule="evenodd" d="M6.0625 0.5C8.8909 0.5 10.3051 0.5 11.1835 1.3784C11.4859 1.6808 11.6845 2.0468 11.8147 2.5118L2.0743 12.2522C1.6093 12.122 1.2433 11.9234 0.9409 11.621C0.0625 10.7432 0.0625 9.3284 0.0625 6.5C0.0625 3.6716 0.0625 2.2574 0.9409 1.3784C1.8205 0.5 3.2341 0.5 6.0625 0.5ZM2.1625 4.5542C2.1625 5.6252 2.8327 6.875 3.8785 7.322C4.1221 7.4258 4.4029 7.4258 4.6465 7.322C5.6923 6.875 6.3625 5.6252 6.3625 4.5542C6.3625 3.4748 5.4223 2.6 4.2625 2.6C3.1027 2.6 2.1625 3.4748 2.1625 4.5542Z" fill="white"/>
<path id="Vector_3" d="M5.16255 4.70005C5.16255 4.93874 5.06773 5.16766 4.89894 5.33644C4.73016 5.50523 4.50124 5.60005 4.26255 5.60005C4.02385 5.60005 3.79494 5.50523 3.62615 5.33644C3.45737 5.16766 3.36255 4.93874 3.36255 4.70005C3.36255 4.46135 3.45737 4.23244 3.62615 4.06365C3.79494 3.89487 4.02385 3.80005 4.26255 3.80005C4.50124 3.80005 4.73016 3.89487 4.89894 4.06365C5.06773 4.23244 5.16255 4.46135 5.16255 4.70005Z" fill="white"/>
</g>
</svg>
