<svg width="13" height="13" viewBox="0 0 13 13" fill="none" xmlns="http://www.w3.org/2000/svg">
<path id="Vector" d="M6.25 1.82243C5.34842 1.93933 4.49331 2.34179 3.781 2.98448L4.3975 3.69029C4.49686 3.81222 4.55095 3.97349 4.54838 4.14013C4.54581 4.30676 4.48678 4.46575 4.38372 4.58359C4.28066 4.70144 4.14162 4.76894 3.99589 4.77188C3.85017 4.77482 3.70913 4.71297 3.6025 4.59936L2.983 3.89183C2.45648 4.647 2.11391 5.5479 1.99 6.50324H3.25C3.39918 6.50324 3.54226 6.57101 3.64775 6.69163C3.75324 6.81225 3.8125 6.97586 3.8125 7.14644C3.8125 7.31703 3.75324 7.48063 3.64775 7.60126C3.54226 7.72188 3.39918 7.78965 3.25 7.78965H1.95625C2.07302 9.16602 2.62315 10.447 3.50425 11.3942C3.61052 11.5115 3.67214 11.672 3.67579 11.8409C3.67944 12.0098 3.62482 12.1736 3.52375 12.2968C3.42268 12.42 3.28326 12.4928 3.13563 12.4995C2.988 12.5062 2.844 12.4461 2.73475 12.3324C1.57975 11.0949 0.8125 9.26988 0.8125 7.31196C0.8125 3.54536 3.50275 0.5 6.8125 0.5C10.1222 0.5 12.8125 3.5445 12.8125 7.31196C12.811 8.25196 12.6423 9.1818 12.3166 10.0449C11.9909 10.908 11.5151 11.6862 10.918 12.3324C10.8088 12.4461 10.6648 12.5062 10.5171 12.4995C10.3695 12.4928 10.2301 12.42 10.129 12.2968C10.0279 12.1736 9.97331 12.0098 9.97696 11.8409C9.98061 11.672 10.0422 11.5115 10.1485 11.3942C11.0235 10.4454 11.5645 9.16325 11.6695 7.78965H10.375C10.2258 7.78965 10.0827 7.72188 9.97725 7.60126C9.87176 7.48063 9.8125 7.31703 9.8125 7.14644C9.8125 6.97586 9.87176 6.81225 9.97725 6.69163C10.0827 6.57101 10.2258 6.50324 10.375 6.50324H11.635C11.317 4.04534 9.57025 2.10801 7.375 1.82243V2.85842C7.375 3.029 7.31574 3.19261 7.21025 3.31323C7.10476 3.43385 6.96168 3.50162 6.8125 3.50162C6.66332 3.50162 6.52024 3.43385 6.41475 3.31323C6.30926 3.19261 6.25 3.029 6.25 2.85842V1.82243ZM9.39925 3.7649C9.4674 3.70301 9.55226 3.67015 9.63928 3.67196C9.7263 3.67376 9.81006 3.71013 9.87621 3.77481C9.94235 3.83949 9.98676 3.92847 10.0018 4.02649C10.0169 4.12451 10.0017 4.22547 9.95875 4.31206L9.87625 4.48015C9.57464 5.08914 9.27114 5.6969 8.96575 6.30342C8.7216 6.78877 8.47409 7.2719 8.22325 7.75277C8.12925 7.93368 8.03324 8.11322 7.93525 8.29135C7.86025 8.42599 7.78675 8.55377 7.73275 8.62581C7.53901 8.88534 7.26304 9.04622 6.96557 9.07308C6.66809 9.09994 6.37346 8.99057 6.1465 8.76903C5.91954 8.5475 5.77884 8.23194 5.75535 7.89178C5.73186 7.55162 5.82751 7.21472 6.02125 6.9552C6.07525 6.88316 6.1735 6.77939 6.2785 6.6739C6.391 6.55984 6.53575 6.42005 6.6985 6.26311C7.0255 5.95094 7.435 5.56845 7.834 5.19968C8.30991 4.75947 8.78741 4.32151 9.2665 3.88583L9.39925 3.7649Z" fill="white"/>
</svg>
