<svg width="13" height="11" viewBox="0 0 13 11" fill="none" xmlns="http://www.w3.org/2000/svg">
<g id="Group 2">
<path id="Vector" d="M11.0393 4.25752C10.9802 4.34852 10.9451 4.45417 10.9377 4.56378C10.9304 4.67338 10.9509 4.78308 10.9973 4.88177C11.1463 5.24337 11.2511 5.62296 11.3094 6.01166C11.4638 7.01678 11.3194 8.04701 10.8953 8.96434C10.8438 9.06496 10.7669 9.14899 10.6727 9.20731C10.5786 9.26564 10.4709 9.29603 10.3613 9.29519H2.77111C2.66093 9.29543 2.55282 9.2641 2.45862 9.20464C2.36442 9.14518 2.28778 9.05988 2.2371 8.9581C1.85301 8.14748 1.68757 7.24361 1.75839 6.34286C1.82922 5.44211 2.13367 4.57823 2.63928 3.84333C3.14489 3.10843 3.83271 2.53005 4.62942 2.16985C5.42612 1.80965 6.30185 1.68113 7.16324 1.79799C7.59908 1.85129 8.02539 1.969 8.42927 2.14757C8.52413 2.19587 8.62957 2.21726 8.73492 2.20959C8.84028 2.20192 8.94182 2.16545 9.02929 2.10387C9.12042 2.04141 9.19345 1.95428 9.24052 1.85185C9.28759 1.74942 9.30692 1.63557 9.29643 1.52256C9.28594 1.40955 9.24602 1.30166 9.18098 1.2105C9.11593 1.11934 9.02822 1.04836 8.92729 1.0052C7.76817 0.488107 6.48192 0.36415 5.25123 0.650936C4.02054 0.937721 2.908 1.62067 2.07165 2.60276C1.23529 3.58485 0.717646 4.81615 0.592242 6.12176C0.466838 7.42737 0.740052 8.74089 1.37307 9.87574C1.47778 10.0644 1.62813 10.2213 1.80918 10.3309C1.99024 10.4404 2.19568 10.4987 2.4051 10.5H10.7153C10.9268 10.5009 11.1347 10.4436 11.3181 10.334C11.5014 10.2243 11.6536 10.0663 11.7594 9.87574C12.2228 9.04015 12.4938 8.10418 12.5511 7.1413C12.6083 6.17842 12.4503 5.21484 12.0894 4.32619C12.0437 4.22491 11.9726 4.13828 11.8837 4.07535C11.7948 4.01243 11.6912 3.97552 11.5839 3.9685C11.4766 3.96148 11.3694 3.98461 11.2736 4.03545C11.1778 4.0863 11.0969 4.163 11.0393 4.25752Z" fill="white"/>
<path id="Vector_2" d="M5.71716 5.8743C5.49198 6.10857 5.36548 6.42631 5.36548 6.75761C5.36548 6.92166 5.39654 7.0841 5.45688 7.23565C5.51722 7.38721 5.60566 7.52492 5.71716 7.64092C5.82865 7.75692 5.96102 7.84893 6.10669 7.91171C6.25237 7.97449 6.4085 8.0068 6.56618 8.0068C6.88463 8.0068 7.19003 7.87519 7.4152 7.64092L10.8113 2.34106L5.71716 5.8743Z" fill="white"/>
</g>
</svg>
