<svg width="13" height="13" viewBox="0 0 13 13" fill="none" xmlns="http://www.w3.org/2000/svg">
<path id="Vector" d="M6.869 0.5C3.557 0.5 0.875 3.188 0.875 6.5C0.875 9.812 3.557 12.5 6.869 12.5C10.187 12.5 12.875 9.812 12.875 6.5C12.875 3.188 10.187 0.5 6.869 0.5ZM6.875 11.3C4.223 11.3 2.075 9.152 2.075 6.5C2.075 3.848 4.223 1.7 6.875 1.7C9.527 1.7 11.675 3.848 11.675 6.5C11.675 9.152 9.527 11.3 6.875 11.3ZM6.743 3.5H6.707C6.467 3.5 6.275 3.692 6.275 3.932V6.764C6.275 6.974 6.383 7.172 6.569 7.28L9.059 8.774C9.263 8.894 9.527 8.834 9.647 8.63C9.67713 8.58142 9.69717 8.52727 9.70593 8.47078C9.71469 8.41429 9.712 8.35661 9.698 8.30118C9.684 8.24576 9.65899 8.19371 9.62446 8.14815C9.58993 8.1026 9.54658 8.06445 9.497 8.036L7.175 6.656V3.932C7.175 3.692 6.983 3.5 6.743 3.5Z" fill="white"/>
</svg>
