<svg width="21" height="21" viewBox="0 0 21 21" fill="none" xmlns="http://www.w3.org/2000/svg">
<path d="M19.0089 0.5H1.86607C1.48719 0.5 1.12383 0.65051 0.855919 0.918419C0.58801 1.18633 0.4375 1.54969 0.4375 1.92857V19.0714C0.4375 19.4503 0.58801 19.8137 0.855919 20.0816C1.12383 20.3495 1.48719 20.5 1.86607 20.5H19.0089C19.3878 20.5 19.7512 20.3495 20.0191 20.0816C20.287 19.8137 20.4375 19.4503 20.4375 19.0714V1.92857C20.4375 1.54969 20.287 1.18633 20.0191 0.918419C19.7512 0.65051 19.3878 0.5 19.0089 0.5ZM10.4375 17.6429H9.00893V11.9286H10.4375V17.6429ZM14.0089 14.7857L12.9989 13.7757L16.2746 10.5H6.86607C6.15971 10.5 5.46921 10.2905 4.88189 9.89811C4.29457 9.50567 3.83681 8.94789 3.5665 8.2953C3.29619 7.6427 3.22546 6.92461 3.36327 6.23182C3.50107 5.53903 3.84122 4.90266 4.34069 4.40319C4.84016 3.90372 5.47653 3.56357 6.16932 3.42577C6.86211 3.28796 7.5802 3.35869 8.2328 3.629C8.88539 3.89931 9.44317 4.35707 9.83561 4.94439C10.228 5.53171 10.4375 6.22221 10.4375 6.92857V7.64286H9.00893V6.92857C9.00893 6.50475 8.88325 6.09045 8.64779 5.73806C8.41233 5.38567 8.07766 5.11102 7.68611 4.94883C7.29455 4.78664 6.86369 4.74421 6.44802 4.82689C6.03235 4.90957 5.65053 5.11366 5.35084 5.41334C5.05116 5.71303 4.84707 6.09485 4.76439 6.51052C4.68171 6.92619 4.72414 7.35705 4.88633 7.74861C5.04852 8.14016 5.32317 8.47483 5.67556 8.71029C6.02795 8.94575 6.44225 9.07143 6.86607 9.07143H16.2746L12.9989 5.79571L14.0089 4.78571L19.0089 9.78571L14.0089 14.7857Z" fill="#084F5F"/>
</svg>
