<svg width="16" height="11" viewBox="0 0 16 11" fill="none" xmlns="http://www.w3.org/2000/svg">
<path id="Vector" d="M11.1023 0.5H4.28409L0.875 5.5V8H2.23864C2.23864 8.66304 2.45414 9.29893 2.83774 9.76777C3.22133 10.2366 3.7416 10.5 4.28409 10.5C4.82658 10.5 5.34685 10.2366 5.73045 9.76777C6.11404 9.29893 6.32955 8.66304 6.32955 8H10.4205C10.4205 8.66304 10.636 9.29893 11.0196 9.76777C11.4032 10.2366 11.9234 10.5 12.4659 10.5C13.0084 10.5 13.5287 10.2366 13.9123 9.76777C14.2959 9.29893 14.5114 8.66304 14.5114 8H15.875V5.5C15.875 4.575 15.2682 3.83333 14.5114 3.83333H13.1477L11.1023 0.5ZM4.625 1.75H7.35227V3.83333H3.26136L4.625 1.75ZM8.375 1.75H10.7614L12.0977 3.83333H8.375V1.75ZM4.28409 6.75C4.55534 6.75 4.81547 6.8817 5.00727 7.11612C5.19907 7.35054 5.30682 7.66848 5.30682 8C5.30682 8.33152 5.19907 8.64946 5.00727 8.88388C4.81547 9.1183 4.55534 9.25 4.28409 9.25C4.01285 9.25 3.75271 9.1183 3.56091 8.88388C3.36911 8.64946 3.26136 8.33152 3.26136 8C3.26136 7.66848 3.36911 7.35054 3.56091 7.11612C3.75271 6.8817 4.01285 6.75 4.28409 6.75ZM12.4659 6.75C12.7372 6.75 12.9973 6.8817 13.1891 7.11612C13.3809 7.35054 13.4886 7.66848 13.4886 8C13.4886 8.33152 13.3809 8.64946 13.1891 8.88388C12.9973 9.1183 12.7372 9.25 12.4659 9.25C12.1947 9.25 11.9345 9.1183 11.7427 8.88388C11.5509 8.64946 11.4432 8.33152 11.4432 8C11.4432 7.66848 11.5509 7.35054 11.7427 7.11612C11.9345 6.8817 12.1947 6.75 12.4659 6.75Z" fill="white"/>
</svg>
