<?xml version="1.0" standalone="no"?>
<!DOCTYPE svg PUBLIC "-//W3C//DTD SVG 20010904//EN"
 "http://www.w3.org/TR/2001/REC-SVG-20010904/DTD/svg10.dtd">
<svg version="1.0" xmlns="http://www.w3.org/2000/svg"
 width="800.000000pt" height="1132.000000pt" viewBox="0 0 800.000000 1132.000000"
 preserveAspectRatio="xMidYMid meet">

<g transform="translate(0.000000,1132.000000) scale(0.100000,-0.100000)"
fill="#000000" stroke="none">
<path d="M4735 10271 c-16 -5 -55 -14 -85 -20 -30 -7 -98 -33 -150 -58 -81
-39 -107 -59 -186 -137 -76 -77 -98 -106 -138 -186 -50 -103 -86 -238 -86
-330 0 -91 36 -227 86 -330 40 -81 61 -109 138 -186 104 -104 202 -159 340
-194 390 -98 791 148 886 543 79 327 -84 673 -386 822 -131 65 -324 100 -419
76z m208 -121 c75 -81 137 -193 166 -301 23 -84 45 -305 35 -356 -3 -18 -4
-33 -1 -33 11 0 91 135 116 197 40 97 55 190 48 291 -6 83 -6 84 13 67 17 -15
20 -31 20 -104 0 -113 -20 -202 -68 -303 -42 -90 -87 -151 -203 -270 -84 -88
-81 -92 35 -62 140 36 295 132 365 226 36 49 36 49 39 21 3 -24 -8 -39 -70
-98 -84 -81 -196 -143 -302 -170 -81 -20 -305 -38 -358 -30 -21 4 -38 4 -38 1
0 -14 153 -105 218 -129 115 -42 253 -54 347 -30 19 5 18 3 -3 -18 -21 -23
-29 -24 -126 -22 -203 4 -381 95 -577 293 l-56 57 8 -46 c28 -176 123 -348
240 -434 44 -32 43 -51 -1 -36 -35 13 -107 88 -156 164 -83 131 -114 253 -117
473 l-2 123 -27 -33 c-38 -44 -102 -170 -124 -243 -13 -43 -18 -92 -18 -172 0
-62 -4 -113 -8 -113 -31 0 -35 132 -7 260 15 71 54 163 96 229 47 74 180 227
218 251 38 25 20 26 -78 4 -147 -32 -320 -138 -388 -238 -27 -41 -39 -45 -39
-15 0 75 220 231 387 273 76 20 301 39 351 30 40 -7 38 -3 -18 38 -58 42 -154
87 -236 109 -62 17 -98 20 -180 17 -100 -3 -103 -3 -86 15 15 17 29 19 132 15
206 -9 341 -76 542 -269 85 -82 81 -85 56 36 -26 123 -139 307 -224 366 -24
16 -44 32 -44 34 0 3 13 5 29 5 23 0 42 -14 94 -70z"/>
<path d="M793 9601 c-21 -6 -17 -12 48 -78 l71 -73 424 0 c281 0 423 3 419 10
-3 6 -17 10 -30 10 -13 0 -27 5 -30 10 -4 6 -143 10 -383 10 l-376 0 -61 59
c-48 46 -65 57 -82 52z"/>
<path d="M988 9593 c23 -2 59 -2 80 0 20 2 1 4 -43 4 -44 0 -61 -2 -37 -4z"/>
<path d="M335 9560 c-4 -7 52 -10 162 -10 l168 0 100 -100 100 -100 465 0 466
0 49 -50 49 -50 101 2 100 2 -102 5 -102 6 -49 48 -48 47 -463 0 -464 0 -107
105 -106 105 -156 0 c-94 0 -159 -4 -163 -10z"/>
<path d="M550 9492 c-30 -24 -21 -52 18 -52 20 0 41 -13 75 -48 47 -47 47 -48
47 -115 0 -54 -4 -71 -20 -87 -16 -16 -18 -25 -10 -40 6 -11 21 -20 33 -20 47
0 63 47 27 77 -16 14 -20 30 -20 78 0 60 -1 62 -49 109 -34 34 -51 59 -53 79
-4 38 -18 43 -48 19z"/>
<path d="M425 9413 c26 -3 50 -14 68 -31 24 -23 27 -33 27 -87 0 -35 -5 -67
-12 -75 -11 -12 -10 -12 5 -1 13 10 17 28 17 79 0 58 -3 69 -27 94 -22 23 -34
28 -72 26 l-46 -1 40 -4z"/>
<path d="M1830 9412 c0 -5 15 -22 33 -40 23 -22 43 -32 65 -32 18 0 32 5 32
10 0 6 -9 10 -19 10 -11 0 -22 4 -25 9 -9 13 -86 52 -86 43z"/>
<path d="M1095 9280 c-17 -19 -17 -22 -3 -36 16 -17 58 -11 58 7 0 5 118 9
293 9 l292 0 85 -85 85 -85 185 2 185 3 -180 2 -181 3 -84 85 -85 85 -285 0
c-236 0 -290 3 -306 15 -26 20 -38 19 -59 -5z"/>
<path d="M965 9120 l-49 -50 -152 0 c-139 0 -152 2 -169 20 -22 24 -37 14 -28
-18 3 -15 11 -21 20 -18 8 3 87 6 174 6 l160 0 53 50 53 50 344 0 344 0 80
-80 80 -80 240 2 240 3 -235 2 -236 3 -79 80 -80 80 -355 0 -356 0 -49 -50z"/>
<path d="M978 9015 c-54 -53 -58 -55 -111 -55 -41 0 -58 5 -72 20 -23 25 -40
25 -65 0 -16 -16 -18 -25 -10 -40 13 -24 52 -26 70 -5 9 10 31 15 74 15 62 0
62 0 116 55 l54 55 326 0 326 0 74 -75 74 -75 296 2 295 3 -290 2 -291 3 -74
75 -74 75 -331 0 -330 0 -57 -55z"/>
<path d="M1286 8991 c-37 -41 21 -83 60 -44 14 14 39 17 148 18 l131 2 47 -45
c27 -25 48 -49 48 -53 0 -5 -120 -9 -267 -9 l-266 0 -58 -55 -58 -55 -168 -2
c-113 -1 -146 -3 -100 -7 l69 -6 -24 -22 c-12 -12 -34 -23 -48 -26 -21 -4 -20
-4 7 -6 25 -1 36 6 53 29 21 30 22 30 119 30 l97 0 54 55 54 55 281 0 281 0
29 -30 29 -30 160 0 161 0 -52 -50 -52 -50 -168 0 -169 0 -29 -30 c-23 -24
-37 -30 -70 -30 -34 0 -47 6 -75 35 l-34 35 -186 0 -186 0 -39 -40 c-45 -47
-84 -53 -107 -18 -13 20 -19 21 -44 13 -37 -13 -44 -49 -14 -65 17 -9 26 -8
45 4 14 9 39 16 58 16 25 0 42 9 72 40 l39 40 176 0 175 -1 35 -29 34 -30
-149 0 -149 0 -53 -52 -54 -53 -132 -6 -132 -5 130 -2 131 -2 54 55 54 55 201
0 201 0 29 30 29 30 166 0 166 0 54 55 54 55 146 0 146 0 29 -30 29 -30 -104
0 -103 0 -68 -65 -67 -65 -159 0 -158 0 -90 -85 -90 -85 -185 0 -186 0 -69
-70 -69 -70 -76 -2 -75 -2 74 -3 74 -4 72 71 73 70 189 0 188 0 85 85 85 85
160 0 161 0 64 65 64 65 112 0 c98 0 113 -2 129 -20 19 -21 50 -26 60 -10 3 6
-1 7 -9 4 -10 -4 -36 14 -74 50 l-59 56 -310 0 -309 0 -80 79 c-44 43 -89 83
-100 89 -12 6 -73 11 -143 10 -99 0 -125 3 -140 16 -23 21 -44 20 -65 -3z"/>
<path d="M3964 8631 c-10 -10 -3 -62 9 -66 6 -3 86 -6 177 -8 128 -2 172 -6
195 -19 17 -8 43 -22 60 -29 55 -26 112 -94 130 -156 36 -122 41 -201 24 -333
-10 -74 -62 -246 -80 -265 -5 -5 -9 -18 -9 -30 0 -12 -4 -25 -9 -30 -5 -6 -14
-26 -19 -45 -6 -19 -25 -73 -42 -120 -18 -47 -38 -107 -45 -135 -12 -47 -40
-127 -148 -425 -25 -69 -48 -136 -52 -150 -4 -14 -11 -29 -14 -35 -4 -5 -13
-30 -20 -55 -8 -25 -19 -58 -26 -75 -7 -16 -24 -64 -38 -105 -14 -41 -40 -113
-58 -160 -17 -47 -34 -95 -36 -108 -3 -12 -9 -25 -14 -28 -5 -3 -9 -16 -9 -29
0 -29 -14 -39 -29 -21 -6 7 -31 51 -54 97 -24 46 -64 122 -89 169 -25 47 -69
130 -98 185 -29 55 -56 105 -60 110 -4 6 -27 48 -51 95 -24 47 -46 87 -49 90
-3 3 -29 52 -58 110 -29 58 -69 134 -88 170 -20 36 -56 106 -82 155 -25 50
-49 92 -52 95 -3 3 -16 27 -30 55 l-25 49 -3 -39 c-2 -22 -9 -43 -15 -47 -7
-4 -69 -8 -139 -8 l-126 0 -68 70 -67 70 -358 0 -359 0 -55 -55 -56 -55 -270
0 c-178 0 -268 -3 -264 -10 4 -6 108 -10 278 -10 l273 0 49 50 49 50 346 0
346 0 64 -65 64 -65 154 0 153 0 -3 -87 -3 -88 -245 0 -245 0 3 24 c3 31 -14
50 -38 44 -22 -6 -33 -32 -24 -57 6 -14 -12 -16 -191 -16 l-198 0 -96 -95 -97
-95 -213 0 c-166 0 -212 -3 -209 -12 4 -10 58 -14 218 -16 l212 -2 102 100
102 100 218 0 218 0 62 -60 63 -60 181 0 182 0 0 -55 0 -55 -203 0 -203 0 -59
60 -59 60 -210 0 -211 0 -88 -87 c-83 -84 -89 -88 -132 -88 -80 -1 -138 -84
-99 -143 26 -41 45 -51 90 -52 74 0 120 67 94 138 l-12 34 78 79 79 79 189 0
189 0 67 -65 67 -64 209 0 209 0 3 -50 3 -51 -173 0 -174 0 -54 -55 -54 -55
-217 0 -217 0 -16 26 c-23 34 -71 30 -99 -8 -19 -25 -19 -28 -3 -52 23 -36 79
-36 102 -1 l16 25 217 0 217 0 54 55 54 55 173 0 173 0 0 -92 0 -92 -27 26
c-28 26 -30 26 -183 28 l-155 1 -50 -51 c-28 -29 -58 -50 -71 -50 -11 0 -29
-9 -39 -20 -17 -19 -17 -21 0 -40 10 -11 23 -20 30 -20 20 0 47 37 43 59 -2
13 11 34 37 60 l39 41 160 0 160 0 28 -27 c24 -23 28 -34 28 -83 0 -52 -3 -59
-38 -93 l-38 -37 -134 0 -135 0 -72 -72 -73 -72 0 -195 0 -195 -42 -43 c-24
-25 -52 -43 -64 -43 -31 0 -50 -25 -34 -45 24 -29 76 -5 64 30 -3 6 18 33 46
60 l50 49 0 197 0 197 65 61 66 61 136 0 137 0 33 32 33 32 0 -161 c0 -89 -4
-164 -8 -167 -5 -3 -28 15 -52 39 -44 45 -44 45 -116 45 -51 0 -75 4 -84 15
-17 21 -33 19 -56 -6 -18 -20 -18 -21 1 -35 24 -18 30 -18 45 1 9 11 33 15 89
15 l77 0 43 -44 c32 -32 41 -49 37 -64 -4 -11 0 -24 9 -32 8 -7 15 -25 15 -41
l0 -29 -90 0 c-53 0 -90 4 -90 10 0 16 -46 12 -60 -5 -15 -18 2 -45 30 -45 10
0 23 7 30 15 9 11 34 15 96 15 l84 0 0 -30 c0 -30 -1 -30 -53 -30 -48 0 -57
-4 -87 -35 -33 -34 -36 -35 -112 -35 -61 0 -80 3 -84 15 -8 19 -34 19 -62 -1
-26 -18 -27 -27 -6 -48 20 -21 38 -20 59 1 13 12 37 17 91 18 70 2 76 4 114
39 35 31 47 36 90 36 l50 0 0 -81 c0 -119 0 -119 -128 -119 l-108 0 -44 -45
c-30 -30 -53 -45 -70 -45 -48 0 -69 -49 -30 -70 29 -16 60 4 60 37 0 18 14 41
42 70 l42 43 104 0 c118 0 132 -7 132 -67 0 -32 -6 -43 -30 -61 -42 -31 -42
-76 0 -100 29 -16 30 -19 30 -89 0 -64 -2 -73 -18 -73 -24 0 -56 -35 -47 -50
4 -7 -11 -30 -36 -56 l-43 -44 -113 0 c-69 0 -113 4 -113 10 0 14 -33 13 -48
-2 -18 -18 -15 -36 8 -48 16 -8 23 -7 37 10 15 18 29 20 122 20 l105 0 44 43
c31 30 51 42 72 42 l30 0 0 -86 c0 -83 -1 -86 -30 -107 -24 -18 -43 -22 -108
-22 -76 0 -79 -1 -112 -35 l-34 -35 -201 0 -201 0 -34 -35 -34 -35 -96 0 c-93
0 -97 -1 -121 -27 l-24 -28 26 23 c25 22 26 22 392 22 220 0 367 -4 367 -9 0
-16 40 -23 56 -10 8 7 14 22 12 33 -2 16 -9 20 -28 18 -14 -1 -26 -7 -28 -12
-4 -12 -532 -14 -532 -2 0 5 10 18 23 30 22 21 32 22 228 22 l205 0 34 35 c33
34 37 35 105 35 59 0 75 -4 90 -20 10 -11 24 -20 32 -20 10 0 13 -44 13 -228
0 -290 12 -272 -178 -272 l-132 0 -45 -41 c-44 -41 -45 -43 -45 -103 0 -57 3
-65 33 -95 l34 -32 166 3 167 3 0 -46 c0 -32 -6 -52 -20 -67 -20 -21 -27 -22
-263 -22 l-242 0 -100 100 -100 100 -135 -2 -135 -2 135 -3 136 -4 99 -99 100
-100 244 0 c213 0 247 2 263 17 17 15 18 13 18 -55 l0 -72 -274 0 -275 0 -107
110 -108 111 -110 -3 c-96 -3 -111 -5 -114 -20 -3 -16 7 -18 94 -18 l97 0 112
-110 111 -110 287 0 287 0 0 -60 0 -60 -287 0 -286 0 -122 120 -121 120 -89
-2 -90 -2 85 -3 85 -4 121 -119 121 -120 279 0 c205 0 283 -3 292 -12 17 -17
16 -178 -1 -178 -7 0 -39 27 -72 60 l-59 60 -426 -2 -425 -3 420 -2 420 -3 60
-59 c33 -32 68 -61 78 -64 20 -8 24 -67 4 -67 -7 0 -37 25 -67 55 l-54 55
-431 -2 -430 -3 425 -2 426 -3 54 -55 c30 -30 62 -55 72 -55 14 0 18 -8 18
-34 0 -19 -5 -38 -11 -42 -6 -3 -36 19 -68 50 l-57 56 -427 0 c-420 0 -427 0
-427 -20 0 -20 7 -20 413 -20 l413 0 54 -55 c40 -40 62 -55 82 -55 27 0 28 -2
28 -55 l0 -55 -33 0 c-27 0 -45 12 -107 75 l-74 75 -391 -2 -390 -3 392 -5
393 -5 72 -73 c61 -59 79 -72 106 -72 l32 0 0 -65 0 -65 -68 0 c-67 0 -69 1
-110 43 -23 23 -42 52 -42 63 0 32 -18 44 -47 31 -33 -15 -28 -51 8 -55 15 -2
45 -22 70 -48 l43 -44 73 0 73 0 0 -35 c0 -46 -7 -47 -218 -43 l-171 3 -64 63
-63 62 -234 -2 -235 -2 237 -6 237 -5 46 -45 c25 -24 45 -48 45 -52 0 -4 -22
-8 -50 -8 -27 0 -50 5 -50 10 0 6 -84 9 -237 8 l-238 -2 230 -6 230 -6 -312
-2 -313 -2 0 -30 0 -30 712 0 711 0 -21 23 c-17 18 -22 36 -22 75 0 48 2 52
28 57 127 26 158 39 194 78 50 53 124 200 248 492 56 132 107 251 113 265 10
20 13 -36 17 -268 l5 -293 72 168 71 168 415 3 414 2 73 -172 c81 -190 120
-304 120 -347 0 -54 -52 -83 -177 -96 l-63 -7 0 -48 c0 -33 6 -55 21 -74 l20
-26 367 1 367 0 -100 26 -99 25 -14 -21 c-18 -27 -72 -28 -95 -3 -15 16 -17
48 -17 244 0 208 1 226 19 242 13 12 32 16 56 14 l37 -3 18 -72 c24 -94 52
-146 108 -202 56 -55 118 -87 187 -94 l50 -5 -41 13 c-142 45 -178 100 -361
543 -3 7 37 -15 89 -50 53 -35 151 -92 219 -128 146 -76 223 -143 234 -202 10
-54 -2 -102 -33 -136 -24 -25 -27 -35 -24 -87 3 -48 0 -61 -19 -81 -20 -21
-32 -24 -113 -26 l-91 -2 84 -3 c100 -4 162 7 239 45 176 86 268 274 218 446
-40 138 -113 203 -366 331 -245 123 -290 163 -290 253 0 76 65 125 165 126
148 1 232 -79 290 -277 16 -56 17 -57 54 -57 68 0 71 9 71 241 0 193 -1 207
-20 227 -30 32 -83 30 -98 -3 -14 -30 -25 -30 -119 -5 -105 28 -179 34 -253
20 -181 -33 -304 -168 -319 -348 l-6 -76 -167 399 c-396 949 -458 1097 -468
1115 -9 16 -21 20 -64 20 -31 0 -58 -5 -63 -12 -5 -7 -142 -323 -303 -703
-161 -379 -297 -694 -302 -700 -5 -5 -7 438 -6 985 l3 995 39 100 c21 55 65
177 98 270 33 94 70 197 83 230 27 68 77 211 106 300 11 33 24 69 29 80 6 11
22 56 36 100 14 44 32 94 39 110 7 17 18 46 25 65 7 19 28 78 47 130 19 52 35
100 37 105 2 6 6 17 9 25 4 8 22 60 41 115 110 323 138 380 245 503 41 48 78
88 82 90 4 2 18 12 31 23 39 34 159 101 223 124 33 12 67 25 75 28 8 3 44 11
80 18 36 6 74 16 85 22 10 5 76 15 145 21 l125 11 3 28 c2 16 -2 29 -10 32
-16 6 -1688 12 -1694 6z m-799 -1416 l0 -50 -174 -3 -175 -2 -48 47 c-26 26
-48 51 -48 55 0 5 100 7 223 6 l222 -3 0 -50z m1557 -2767 l156 -373 -316 -3
c-173 -1 -317 0 -320 2 -5 6 310 745 318 746 3 0 76 -168 162 -372z m-1564
-140 c-7 -4 -80 -8 -162 -8 -149 0 -150 0 -178 27 -25 24 -28 33 -28 94 0 64
1 68 35 98 l36 31 138 0 c117 0 141 3 152 17 12 14 14 -3 17 -117 2 -100 -1
-135 -10 -142z"/>
<path d="M2616 8611 c-4 -6 -40 -11 -84 -11 l-78 0 -49 -50 -49 -50 -200 0
c-170 0 -202 2 -217 16 -17 15 -20 15 -44 0 -21 -14 -24 -20 -15 -36 13 -24
43 -26 60 -5 10 12 47 15 214 15 l202 0 49 50 49 50 71 0 c59 0 72 -3 83 -20
12 -20 37 -27 45 -12 7 12 -30 65 -37 53z"/>
<path d="M2220 8374 c-36 -36 -76 -70 -90 -77 -29 -14 -34 -50 -7 -55 24 -5
49 18 44 39 -3 11 18 39 62 83 l66 66 220 3 220 2 -225 3 -226 2 -64 -66z"/>
<path d="M1949 8361 c-23 -18 -23 -20 -6 -38 15 -17 17 -44 17 -234 l0 -214
88 -88 87 -87 324 0 324 0 63 -55 63 -56 133 4 133 3 -131 2 -131 2 -60 55
-61 55 -329 0 -328 0 -83 83 -82 82 0 211 c0 179 2 214 16 224 17 15 15 61 -2
67 -6 2 -22 -5 -35 -16z"/>
<path d="M2390 8335 c-19 -23 0 -51 32 -47 17 1 35 -10 63 -38 l39 -40 161 2
160 2 -162 6 -162 5 -35 34 c-19 19 -36 46 -38 60 -4 31 -38 40 -58 16z"/>
<path d="M1647 8282 c-10 -11 -15 -25 -12 -33 3 -9 -13 -33 -40 -59 l-45 -44
0 -113 c0 -92 -3 -114 -16 -121 -24 -13 -13 -47 15 -47 35 0 50 29 28 53 -14
15 -17 39 -17 123 l0 105 44 43 c27 26 50 41 59 38 23 -9 59 22 55 46 -4 29
-48 35 -71 9z"/>
<path d="M1407 8260 c-16 -13 -24 -27 -20 -36 4 -11 -19 -41 -71 -93 l-77 -77
4 -140 3 -139 2 140 2 141 73 71 c50 50 81 73 101 75 36 4 55 31 40 55 -16 25
-28 26 -57 3z"/>
<path d="M1779 8201 c-23 -18 -23 -20 -6 -38 14 -16 17 -39 17 -134 l0 -115
-68 -67 -68 -67 -68 0 c-51 0 -74 5 -88 17 -15 13 -23 14 -44 4 -28 -12 -29
-37 -2 -55 13 -8 21 -6 36 7 14 13 37 17 93 17 l74 0 72 72 73 72 0 118 c0 69
4 118 10 118 18 0 32 40 19 56 -15 18 -22 18 -50 -5z"/>
<path d="M2274 8170 c-12 -5 -25 -14 -29 -20 -10 -16 14 -40 39 -40 13 0 49
-28 95 -74 l73 -74 232 1 c127 0 245 4 261 8 17 3 -88 7 -232 8 l-261 1 -69
71 c-37 39 -69 80 -69 91 -2 28 -16 37 -40 28z"/>
<path d="M1052 8162 c21 -48 44 -92 50 -92 17 0 20 51 4 75 -14 22 -63 37 -54
17z"/>
<path d="M2874 8108 c-4 -6 1 -17 11 -24 23 -17 26 -14 18 14 -6 24 -18 28
-29 10z"/>
<path d="M2121 7986 c-19 -23 -6 -46 27 -46 19 0 40 -12 67 -40 l39 -40 274 0
274 0 85 -85 85 -86 76 4 77 3 -75 2 -75 2 -85 85 -85 85 -271 0 -272 0 -40
41 c-23 22 -42 50 -44 62 -4 27 -39 34 -57 13z"/>
<path d="M1798 7779 c-10 -5 -18 -20 -18 -32 0 -13 -16 -39 -38 -60 l-38 -37
-188 0 c-122 0 -185 -3 -181 -10 4 -6 77 -10 186 -10 l179 0 46 42 c31 29 54
42 69 40 29 -4 49 21 41 53 -7 26 -28 32 -58 14z"/>
<path d="M2080 7445 l-54 -55 -153 0 c-95 0 -153 4 -153 10 0 17 -36 11 -54
-9 -16 -17 -16 -20 -1 -35 21 -21 28 -20 50 4 17 18 31 20 164 20 l147 0 54
55 54 55 263 0 263 0 16 -25 c9 -14 21 -25 27 -25 6 0 -2 14 -18 30 l-29 30
-261 0 -261 0 -54 -55z"/>
<path d="M2728 7433 c-22 -6 -31 -32 -17 -49 28 -33 79 1 58 39 -10 17 -12 18
-41 10z"/>
<path d="M2105 7310 c-3 -5 -43 -10 -87 -10 l-81 0 -46 -47 -46 -48 -145 -6
-145 -5 145 -2 146 -2 49 50 49 50 68 0 c50 0 70 -4 74 -14 3 -8 12 -17 20
-20 31 -12 60 18 48 49 -7 17 -40 20 -49 5z"/>
<path d="M2284 7019 c-23 -26 -8 -54 30 -54 17 -1 41 -16 70 -44 43 -42 45
-43 119 -45 54 -2 80 -8 92 -20 26 -25 72 4 59 38 -7 19 -35 21 -51 5 -8 -8
-42 -11 -90 -10 -77 2 -79 3 -121 44 -23 23 -40 48 -37 55 7 20 -13 52 -34 52
-10 0 -26 -9 -37 -21z"/>
<path d="M1854 6631 c-11 -12 13 -21 54 -21 46 0 50 -3 122 -75 l74 -75 90 0
90 0 57 -56 c54 -54 56 -57 51 -99 -4 -37 -1 -47 21 -69 36 -36 80 -35 118 3
38 38 39 82 3 118 -22 22 -31 25 -68 20 -41 -6 -44 -5 -101 53 l-59 60 -92 0
-92 0 -70 72 -71 73 -61 0 c-34 0 -63 -2 -66 -4z"/>
<path d="M1913 6553 c-10 -4 -9 -12 3 -34 16 -31 34 -31 34 0 0 22 -20 40 -37
34z"/>
<path d="M2057 6381 c69 -6 74 -8 117 -50 34 -34 44 -50 40 -66 -7 -28 19 -49
50 -41 29 7 40 31 25 58 -8 15 -17 18 -35 14 -21 -6 -33 2 -71 44 l-45 50 -76
-2 -77 -1 72 -6z"/>
<path d="M2097 6213 c-13 -4 2 -23 63 -80 l80 -75 0 -192 c0 -192 0 -193 -25
-216 -49 -46 -20 -114 47 -112 68 2 92 83 38 124 l-30 22 0 192 0 193 -52 53
c-76 77 -101 95 -121 91z"/>
<path d="M2736 5455 l-23 -25 -269 -3 -269 -2 273 -3 c220 -2 272 -5 272 -15
0 -22 34 -47 63 -47 31 0 67 31 67 58 0 59 -72 83 -114 37z"/>
<path d="M2515 5215 c-15 -11 -57 -15 -180 -17 l-160 -2 155 -3 c122 -3 158
-7 171 -19 26 -24 61 -9 57 24 -4 31 -18 37 -43 17z"/>
<path d="M2364 5115 c-10 -8 -35 -15 -54 -15 -28 0 -46 -10 -84 -45 -27 -25
-45 -45 -40 -45 6 0 28 18 49 40 45 46 91 54 113 20 28 -45 97 -7 72 40 -13
24 -29 25 -56 5z"/>
<path d="M2746 4887 c-11 -8 -17 -23 -14 -38 2 -20 9 -25 39 -27 27 -2 47 -14
79 -48 44 -44 45 -44 115 -44 45 -1 77 -6 89 -15 25 -19 58 -2 54 28 -4 28
-34 34 -58 12 -16 -14 -33 -17 -88 -13 -65 5 -71 7 -110 46 -23 23 -42 51 -42
61 0 49 -27 65 -64 38z"/>
<path d="M2520 4775 c-9 -11 -32 -15 -79 -15 l-67 0 -49 -50 c-42 -43 -54 -49
-94 -52 l-46 -3 45 -6 c44 -5 47 -3 101 48 53 50 58 53 109 53 41 0 59 -5 76
-21 15 -14 29 -19 43 -14 22 7 38 46 26 64 -9 16 -51 13 -65 -4z"/>
<path d="M2725 4661 c-4 -7 -66 -11 -173 -11 l-166 0 -48 -47 c-44 -43 -55
-48 -106 -54 l-57 -6 55 -2 c54 -1 57 0 105 49 l49 50 162 0 c138 0 163 -2
168 -16 4 -10 15 -14 33 -12 22 2 28 8 28 28 0 18 -6 26 -22 28 -11 2 -24 -2
-28 -7z"/>
<path d="M2575 4560 c-18 -20 -18 -21 3 -43 18 -19 22 -36 22 -83 0 -59 1 -60
55 -114 31 -30 55 -62 54 -70 -3 -32 2 -40 25 -40 13 0 29 6 35 14 18 21 2 46
-28 46 -20 0 -41 14 -74 49 -47 49 -47 50 -47 119 0 54 4 71 16 76 10 4 14 15
12 33 -4 36 -45 44 -73 13z"/>
<path d="M2187 4474 c-10 -10 -9 -64 2 -64 15 0 33 28 29 46 -3 19 -20 28 -31
18z"/>
<path d="M3961 3396 c-15 -60 -14 -81 4 -96 13 -11 15 -3 15 64 0 42 -2 76 -4
76 -2 0 -9 -20 -15 -44z"/>
<path d="M2687 3355 c-13 -13 -55 -15 -264 -17 l-248 -3 244 -2 c213 -3 247
-6 263 -20 24 -22 53 -6 53 28 0 29 -26 36 -48 14z"/>
<path d="M3988 3203 c-1 -32 -2 -73 0 -90 l3 -33 88 0 c79 0 90 2 109 23 17
18 22 36 22 74 l0 50 -87 12 c-49 6 -98 14 -110 17 -20 5 -21 2 -25 -53z"/>
<path d="M2365 2785 c-55 -19 -110 -83 -125 -145 -42 -174 118 -311 272 -234
25 13 78 72 78 87 0 16 -30 5 -40 -13 -28 -53 -137 -68 -188 -25 -38 32 -57
98 -48 167 9 66 29 104 66 123 66 34 138 7 167 -63 22 -54 37 -27 28 52 -6 65
-16 80 -32 51 -7 -12 -14 -12 -48 0 -50 18 -79 18 -130 0z"/>
<path d="M3526 2788 c-52 -14 -112 -75 -127 -130 -16 -61 -5 -142 25 -189 42
-63 128 -97 199 -78 95 25 151 102 151 204 -1 90 -44 155 -126 189 -42 18 -66
19 -122 4z m112 -44 c39 -27 56 -73 56 -154 1 -87 -18 -131 -64 -155 -60 -31
-109 -11 -141 59 -38 84 -14 226 44 254 33 16 79 14 105 -4z"/>
<path d="M4585 2785 c-55 -19 -110 -83 -125 -145 -48 -200 176 -342 313 -199
20 22 37 44 37 49 0 18 -29 10 -40 -10 -28 -53 -137 -68 -188 -25 -38 32 -57
98 -48 167 9 66 29 104 66 123 66 34 138 7 167 -63 22 -54 37 -27 28 52 -6 65
-16 80 -32 51 -7 -12 -14 -12 -48 0 -50 18 -79 18 -130 0z"/>
<path d="M5095 2790 c-33 -13 -65 -55 -71 -92 -8 -46 24 -83 121 -142 65 -39
70 -45 70 -77 0 -27 -5 -36 -28 -47 -46 -22 -97 1 -122 56 -11 23 -23 42 -27
42 -11 0 -10 -138 1 -144 5 -3 11 1 14 9 5 12 12 12 57 -1 88 -26 164 12 176
88 10 57 -15 90 -105 142 -44 25 -85 55 -91 66 -19 35 12 70 60 70 28 0 78
-47 85 -80 4 -17 11 -30 16 -30 11 0 11 1 13 73 2 64 -8 92 -23 68 -8 -12 -16
-13 -49 -3 -45 14 -69 14 -97 2z"/>
<path d="M5850 2782 c-47 -23 -75 -78 -60 -118 16 -42 37 -61 112 -105 81 -47
96 -70 74 -105 -23 -33 -58 -40 -103 -17 -27 13 -41 28 -49 53 -20 60 -34 48
-34 -29 0 -66 13 -100 26 -67 5 13 11 13 55 0 93 -28 179 23 179 104 -1 51
-24 77 -116 131 -70 41 -79 50 -82 79 -3 26 1 34 22 43 49 23 111 -14 123 -72
10 -50 28 -27 31 41 3 64 -10 99 -28 71 -7 -12 -15 -13 -48 -3 -52 16 -61 15
-102 -6z"/>
<path d="M7432 2783 c-18 -9 -40 -29 -48 -44 -34 -66 -9 -112 93 -174 85 -51
93 -59 93 -91 0 -31 -27 -49 -72 -48 -46 2 -84 32 -93 76 -11 48 -29 26 -32
-38 -3 -65 10 -101 27 -73 9 15 14 15 63 2 50 -14 57 -14 100 5 55 24 82 68
73 117 -8 39 -37 68 -123 120 -37 22 -71 48 -77 58 -14 22 2 49 38 62 39 13
76 -10 101 -62 11 -24 23 -43 27 -43 5 0 8 34 8 75 0 41 -4 75 -9 75 -5 0 -11
-5 -13 -12 -4 -10 -13 -10 -45 0 -53 16 -71 15 -111 -5z"/>
<path d="M1130 2775 c0 -9 9 -15 25 -15 l25 0 -2 -167 c-3 -167 -3 -168 -26
-171 -13 -2 -21 -9 -19 -15 3 -9 48 -12 153 -12 l148 0 18 48 c10 27 16 53 13
58 -3 5 -23 -9 -44 -32 -38 -39 -40 -40 -102 -37 l-64 3 -3 73 -3 73 58 -3
c49 -3 60 -6 68 -25 20 -46 35 -26 35 47 0 73 -15 93 -35 48 -8 -19 -19 -23
-67 -26 l-58 -3 0 66 0 66 72 -3 c68 -3 74 -5 86 -30 20 -42 32 -34 32 22 l0
50 -155 0 c-131 0 -155 -2 -155 -15z"/>
<path d="M1495 2780 c-3 -6 1 -12 9 -15 9 -3 23 -7 31 -10 13 -4 15 -28 13
-162 l-3 -158 -29 -14 c-48 -23 -12 -31 141 -30 l142 0 17 54 c18 55 11 86
-10 51 -30 -52 -98 -78 -161 -62 l-26 7 3 157 3 157 28 3 c15 2 27 9 27 18 0
11 -18 14 -89 14 -50 0 -93 -5 -96 -10z"/>
<path d="M1860 2775 c0 -9 9 -15 25 -15 l25 0 -2 -167 c-3 -167 -3 -168 -26
-171 -13 -2 -21 -9 -19 -15 3 -9 48 -12 153 -12 l148 0 18 48 c10 27 15 53 12
58 -3 6 -23 -8 -44 -31 -38 -41 -38 -41 -101 -38 l-64 3 -3 73 -3 73 58 -3
c49 -3 60 -6 68 -25 5 -13 16 -23 23 -23 10 0 12 17 10 67 -3 69 -16 89 -33
51 -8 -19 -19 -23 -67 -26 l-58 -3 0 66 0 65 68 0 c70 0 92 -10 92 -42 0 -10
7 -18 15 -18 11 0 15 12 15 50 l0 50 -155 0 c-131 0 -155 -2 -155 -15z"/>
<path d="M2630 2735 c0 -63 8 -69 30 -22 13 28 21 32 58 35 l43 3 -3 -158 -3
-158 -28 -13 c-18 -9 -25 -18 -20 -23 14 -14 165 -7 170 8 2 6 -6 13 -19 15
-23 3 -23 4 -26 166 l-2 162 33 0 c34 0 58 -18 70 -53 10 -28 27 -10 27 28 0
67 4 65 -171 65 l-159 0 0 -55z"/>
<path d="M2987 2784 c-10 -11 3 -24 23 -24 28 0 31 -25 28 -185 l-3 -140 -28
-13 c-19 -9 -26 -17 -19 -24 14 -14 164 -6 169 9 2 6 -6 13 -19 15 -21 3 -23
8 -26 76 -2 54 0 72 10 72 7 0 38 -35 68 -77 75 -103 75 -103 130 -103 61 0
72 15 26 34 -23 10 -53 38 -86 83 -44 60 -48 69 -33 78 44 26 63 55 63 93 0
50 -29 88 -78 102 -40 11 -215 14 -225 4z m205 -51 c47 -55 24 -108 -54 -127
l-28 -6 0 75 0 75 33 0 c20 0 40 -7 49 -17z"/>
<path d="M3795 2780 c-4 -6 7 -15 24 -21 17 -6 36 -19 41 -29 13 -24 13 -251
0 -284 -6 -17 -17 -26 -31 -26 -12 0 -19 -5 -16 -12 5 -17 139 -18 144 -1 2 6
-6 13 -19 15 -22 3 -23 6 -26 127 l-3 124 93 -113 c132 -163 143 -174 156
-166 9 5 12 61 12 186 0 178 0 179 23 182 47 7 14 23 -48 23 -61 0 -95 -16
-48 -23 21 -3 22 -9 25 -118 2 -63 0 -114 -3 -114 -3 0 -52 59 -109 130 l-105
130 -52 0 c-28 0 -55 -5 -58 -10z"/>
<path d="M4247 2784 c-10 -11 2 -24 24 -24 19 0 19 -7 17 -167 -3 -167 -3
-168 -26 -171 -13 -2 -21 -9 -19 -15 5 -17 169 -16 175 1 2 7 -5 12 -15 12
-38 0 -43 19 -43 160 0 154 4 178 31 182 11 2 21 8 22 13 2 11 -155 20 -166 9z"/>
<path d="M5325 2780 c-3 -6 5 -14 20 -20 16 -6 48 -45 91 -110 64 -100 65
-102 62 -163 -3 -56 -5 -62 -26 -65 -13 -2 -21 -9 -19 -15 5 -16 159 -16 164
0 2 6 -6 13 -19 15 -21 3 -23 8 -26 73 l-2 70 62 95 c44 67 70 96 86 98 12 2
22 10 22 18 0 11 -16 14 -69 14 -68 0 -104 -16 -62 -27 12 -3 21 -11 21 -18 0
-16 -72 -135 -82 -135 -8 0 -88 126 -88 140 0 5 9 10 20 10 11 0 20 7 20 15 0
12 -16 15 -84 15 -47 0 -88 -5 -91 -10z"/>
<path d="M6102 2738 c3 -50 19 -69 26 -31 5 27 31 43 69 43 l33 0 -2 -162 c-3
-162 -3 -163 -26 -166 -13 -2 -21 -9 -19 -15 5 -16 159 -16 164 0 2 6 -6 13
-19 15 -23 3 -23 4 -26 166 l-2 162 30 0 c43 0 66 -15 74 -45 10 -41 26 -19
26 36 l0 49 -166 0 -165 0 3 -52z"/>
<path d="M6460 2776 c0 -8 10 -16 23 -18 22 -3 22 -5 22 -168 0 -165 0 -165
-23 -168 -13 -2 -21 -9 -19 -15 3 -9 47 -12 152 -12 l148 0 18 52 c9 28 15 54
12 57 -4 3 -23 -12 -44 -35 -36 -40 -38 -40 -100 -37 l-64 3 -3 73 -3 72 56 0
c49 0 57 -3 67 -25 19 -42 28 -28 28 45 0 72 -8 87 -25 48 -8 -19 -19 -23 -67
-26 l-58 -3 0 66 0 65 68 0 c70 0 92 -10 92 -42 0 -10 7 -18 16 -18 12 0 14
10 12 48 l-3 47 -152 3 c-129 2 -153 0 -153 -12z"/>
<path d="M6820 2780 c0 -6 11 -15 25 -20 l25 -10 -2 -162 c-3 -162 -3 -163
-26 -166 -13 -2 -21 -9 -19 -15 5 -17 139 -16 145 1 2 7 -5 12 -17 12 -12 0
-24 6 -26 13 -8 21 -12 238 -4 230 4 -5 34 -66 67 -138 32 -71 63 -130 68
-129 11 1 27 32 94 174 l49 105 -2 -125 c-2 -122 -2 -125 -25 -128 -13 -2 -21
-9 -19 -15 5 -16 159 -16 164 0 2 6 -6 13 -19 15 -23 3 -23 3 -23 168 0 163 0
165 23 168 12 2 22 10 22 18 0 10 -14 14 -59 14 l-58 0 -63 -140 c-35 -77 -66
-137 -69 -134 -3 3 -33 65 -67 137 l-60 132 -62 3 c-39 2 -62 -1 -62 -8z"/>
</g>
</svg>
